<svg xmlns="http://www.w3.org/2000/svg" viewBox="0 0 128 128"><path fill="none" d="M0 0h128v128H0z"/><g><path fill="#61dafb" d="M64 43.6c-4.2 0-8.3.4-12.2 1.2 1.6-6.4 4.5-12.3 8.3-17.2 2.5-3.3 5.3-6.1 8.3-8.4 3.2-2.4 6.6-4.3 10.2-5.5 3.1-1 6.3-1.5 9.4-1.5 8.7 0 16.6 3.6 22.3 9.4 2.8 2.8 5.1 6 6.8 9.5 2.1 4.4 3.2 9.2 3.2 14.1 0 7.2-2.3 14-6.2 19.6-3.8 5.5-9 9.8-15 12.8 4.2 4.2 9.9 6.8 16.1 6.8 6.4 0 12.3-2.7 16.5-7.1 3.5-3.6 5.8-8.4 6.3-13.6.2-2.1.2-4.3 0-6.4-.7-7.8-4.4-14.8-9.9-19.8-3.4-3.1-7.5-5.4-11.9-6.7-3.9-1.2-8.1-1.7-12.3-1.6-7.8.2-15.1 2.9-20.9 7.4-4.8 3.7-8.5 8.6-10.7 14.2-1.2 3.1-1.9 6.4-2 9.8-.1 4.3 1.1 8.5 3.3 12.2 2.7 4.5 6.6 8.1 11.2 10.7 5.5 3.1 11.8 4.6 18.2 4.4 7.2-.2 14-2.5 19.6-6.4 5.5-3.8 9.8-9 12.8-15 1.5-3.1 2.5-6.4 2.9-9.8.3-2.5.3-5 0-7.5-.7-6.2-3.4-11.8-7.5-16.2-3.5-3.8-8-6.6-13-8.1-3.6-1.1-7.4-1.6-11.2-1.4-8.7.4-16.6 4-22.3 9.8-2.8 2.8-5.1 6-6.8 9.5-2.1 4.4-3.2 9.2-3.2 14.1 0 7.2 2.3 14 6.2 19.6 3.8 5.5 9 9.8 15 12.8-4.2 4.2-9.9 6.8-16.1 6.8-6.4 0-12.3-2.7-16.5-7.1-3.5-3.6-5.8-8.4-6.3-13.6-.2-2.1-.2-4.3 0-6.4.7-7.8 4.4-14.8 9.9-19.8 3.4-3.1 7.5-5.4 11.9-6.7 3.9-1.2 8.1-1.7 12.3-1.6 7.8.2 15.1 2.9 20.9 7.4 4.8 3.7 8.5 8.6 10.7 14.2 1.2 3.1 1.9 6.4 2 9.8.1 4.3-1.1 8.5-3.3 12.2-2.7 4.5-6.6 8.1-11.2 10.7-5.5 3.1-11.8 4.6-18.2 4.4-7.2-.2-14-2.5-19.6-6.4-5.5-3.8-9.8-9-12.8-15-1.5-3.1-2.5-6.4-2.9-9.8-.3-2.5-.3-5 0-7.5.7-6.2 3.4-11.8 7.5-16.2 3.5-3.8 8-6.6 13-8.1 3.6-1.1 7.4-1.6 11.2-1.4z"/><circle fill="#61dafb" cx="64" cy="64" r="10.5"/></g></svg>